<?xml version="1.0" standalone="no"?><!DOCTYPE svg PUBLIC "-//W3C//DTD SVG 1.1//EN" "http://www.w3.org/Graphics/SVG/1.1/DTD/svg11.dtd"><svg t="1699666905931" class="icon" viewBox="0 0 1024 1024" version="1.1" xmlns="http://www.w3.org/2000/svg" p-id="23285" xmlns:xlink="http://www.w3.org/1999/xlink" width="200" height="200"><path d="M169.6 638.336c16.64 0 32.256-6.528 43.968-18.24a62.016 62.016 0 0 0 13.632-67.648l148.16-148.224a61.76 61.76 0 0 0 23.68 4.672 61.056 61.056 0 0 0 39.872-15.488l128.192 64.064c-0.128 1.344-0.832 2.56-0.832 3.904a62.08 62.08 0 0 0 62.08 62.272 62.08 62.08 0 0 0 57.408-85.952l148.928-186.24a62.08 62.08 0 0 0 67.072-13.696 62.272 62.272 0 0 0 0.064-87.936 63.68 63.68 0 0 0-88 0 61.824 61.824 0 0 0-13.504 67.904l-149.056 186.368a63.36 63.36 0 0 0-62.592 10.624L460.352 350.592c0.064-1.344 0.768-2.56 0.768-3.904a62.08 62.08 0 0 0-18.176-43.968c-23.296-23.488-64.384-23.488-87.936-0.064a62.336 62.336 0 0 0-13.504 67.584L192.96 518.784a64 64 0 0 0-67.392 13.312 62.464 62.464 0 0 0 0 87.936 62.016 62.016 0 0 0 44.032 18.304z m678.08-454.592a14.4 14.4 0 0 1 20.16 0 14.4 14.4 0 0 1 0 20.16 14.72 14.72 0 0 1-20.16 0 14.08 14.08 0 0 1-4.096-10.112 14.08 14.08 0 0 1 4.096-10.048z m-229.312 267.52a14.08 14.08 0 0 1 20.096 0 14.4 14.4 0 0 1 0 20.16 14.72 14.72 0 0 1-20.224 0 14.208 14.208 0 0 1 0.128-20.16zM388.928 336.576a14.208 14.208 0 0 1 20.16 0 14.08 14.08 0 0 1-0.128 20.16 14.592 14.592 0 0 1-20.032 0 14.272 14.272 0 0 1 0-20.16zM159.488 566.016a13.888 13.888 0 0 1 10.112-4.16c3.84 0 7.424 1.344 10.048 4.032a14.336 14.336 0 0 1 0.064 20.224 14.72 14.72 0 0 1-20.16 0.128 14.4 14.4 0 0 1-0.064-20.224z" fill="#ffffff" p-id="23286"></path><path d="M953.344 857.92h-14.272V346.688a23.936 23.936 0 0 0-24-24h-114.688a23.936 23.936 0 0 0-23.936 24v511.232h-66.752V614.272a23.936 23.936 0 0 0-24-23.936H571.008a23.936 23.936 0 0 0-23.872 23.936v243.712H480.256V499.648a23.936 23.936 0 0 0-23.936-24H341.632a23.936 23.936 0 0 0-24 24v358.336H250.944v-128.96a23.936 23.936 0 0 0-24-24H112.256a23.936 23.936 0 0 0-24 24v128.96h-14.208a23.936 23.936 0 1 0 0 47.872h879.296a23.936 23.936 0 1 0 0-47.936z m-817.088 0v-105.024h66.752v105.024H136.256z m229.312 0V523.648h66.752v334.336H365.568z m229.44 0V638.336h66.816v219.648H595.008z m229.376 0V370.624h66.752v487.296h-66.752z" fill="#ffffff" p-id="23287"></path></svg>