<?xml version="1.0" standalone="no"?><!DOCTYPE svg PUBLIC "-//W3C//DTD SVG 1.1//EN" "http://www.w3.org/Graphics/SVG/1.1/DTD/svg11.dtd"><svg t="1699617817948" class="icon" viewBox="0 0 1024 1024" version="1.1" xmlns="http://www.w3.org/2000/svg" p-id="31131" xmlns:xlink="http://www.w3.org/1999/xlink" width="200" height="200"><path d="M811.823791 954.691747v0.319983H47.961087V339.141025a23.902708 23.902708 0 0 0-23.870709-23.870709 23.902708 23.902708 0 0 0-23.87071 23.870709v639.581423c0 13.151289 10.623426 23.774715 23.774715 23.774714h787.925403a23.902708 23.902708 0 1 0-0.095995-47.837413z" fill="#1296db" p-id="31132"></path><path d="M469.666289 767.82185h104.794334v148.855952h-104.794334v-148.855952z m186.837899-111.481973h104.794334v260.529915h-104.794334V656.339877zM282.796391 482.365282h104.794335V916.485812H282.796391V482.365282z m-186.741904 173.718608h104.794335v260.465919H96.054487v-260.465919zM420.100968 268.456847a271.889301 271.889301 0 1 1 324.878437 270.161394l-38.429923 47.453435a18.814983 18.814983 0 0 1-28.798443 0.319982l-41.43776-47.453434a274.737147 274.737147 0 0 1-216.212311-270.481377z m300.527753 241.20296a19.134966 19.134966 0 0 1 10.879412-6.495649 237.235174 237.235174 0 1 0-273.745201-234.707311 237.235174 237.235174 0 0 0 191.989621 234.707311c4.159775 0.863953 7.935571 3.007837 10.783417 6.175666l31.614291 36.06205 28.47846-35.742067z" fill="#1296db" p-id="31133"></path><path d="M750.771091 231.018871a75.09994 75.09994 0 0 0 29.150424-59.292795c0-41.597751-34.046159-75.419923-75.931894-75.419923a75.771904 75.771904 0 0 0-75.899897 75.419923c0 24.062699 11.423382 45.469542 29.118426 59.292795a125.849196 125.849196 0 0 0-79.739689 116.697691v25.15064c0 6.943625 5.663694 12.57532 12.639316 12.57532h227.795685a12.607318 12.607318 0 0 0 12.639317-12.57532v-25.15064a125.817198 125.817198 0 0 0-79.771688-116.697691z" fill="#1296db" p-id="31134"></path><path d="M649.080589 171.630081c0-30.078374 24.638668-54.557051 54.909032-54.55705 30.302362 0 54.94103 24.446678 54.941029 54.55705 0 30.078374-24.638668 54.557051-54.941029 54.557051a54.813037 54.813037 0 0 1-54.909032-54.557051zM811.503808 364.835636h-215.028375v-13.375277c0-58.876817 48.253391-106.810226 107.514188-106.810225 59.292794 0 107.514188 47.90141 107.514187 106.810225v13.343279z" fill="#1296db" p-id="31135"></path></svg>