<?xml version="1.0" standalone="no"?><!DOCTYPE svg PUBLIC "-//W3C//DTD SVG 1.1//EN" "http://www.w3.org/Graphics/SVG/1.1/DTD/svg11.dtd"><svg t="1699666617591" class="icon" viewBox="0 0 1024 1024" version="1.1" xmlns="http://www.w3.org/2000/svg" p-id="17375" xmlns:xlink="http://www.w3.org/1999/xlink" width="200" height="200"><path d="M489.728764 891.804189c-19.22076 0-35.716456-2.892887-46.737464-8.349155-31.619138-8.228405-56.852846-16.263405-79.178317-23.37129-56.092529-17.86181-89.951685-28.641317-156.63748-20.084431-11.206226 1.446955-21.465894-6.482645-22.904663-17.693987s6.483668-21.466917 17.695011-22.904663c75.677587-9.712199 117.031437 3.454682 174.265976 21.679765 22.373567 7.125281 47.733141 15.20019 79.365582 23.356964 1.890047 0.487094 3.701299 1.242294 5.376451 2.242064 3.810792 2.273786 20.366863 6.042623 47.219441 3.165086 28.059056-3.004427 55.253418-12.072967 76.576049-25.537629l76.261894-48.182372L840.952011 662.471037c0.541329-0.341784 1.099031-0.659009 1.670036-0.948605 2.792603-1.417279 4.210905-3.759627 4.214998-6.964622 0.001023-1.442862-0.401136-6.359848-5.636371-9.029654-7.999185-4.080945-25.63075-1.835811-51.121308 16.693194-7.362688 5.352915-17.375739 5.200442-24.571628-0.3776-7.194866-5.575995-9.842159-15.234983-6.495948-23.699772 4.460592-11.285021 3.091408-17.909905 1.178849-19.434631-2.995217-2.388397-15.257495-3.164063-34.043351 9.700943l-16.300244 11.160177c-6.247284 4.278443-14.347776 4.756327-21.056572 1.243317s-10.92891-10.44284-10.971889-18.015306c-0.028653-5.208629-0.877997-7.634888-1.25355-8.453533-2.919493-0.75827-14.175861-0.088004-35.972283 11.507078l-96.516194 51.341319c-9.982352 5.308913-22.372543 1.520633-27.680433-8.457626-5.308913-9.979282-1.521656-22.37152 8.457626-27.680433l96.516194-51.341319c33.431414-17.784038 58.452273-21.196765 76.489068-10.429537 3.965312 2.366907 8.256034 5.869684 11.912307 11.026124 28.566616-17.070794 57.162908-18.584264 75.945693-3.599991 3.632737 2.89698 11.346419 10.263761 15.125489 22.828938 18.422581-7.249101 39.599903-10.345626 58.95267-0.476861 17.274432 8.809643 27.991518 26.258037 27.972075 45.537126-0.019443 18.09717-9.82374 34.44244-25.660426 42.920532l-179.214684 113.208365-76.264964 48.183396c-26.511817 16.741289-59.921741 27.974122-94.078679 31.631418C504.654708 891.390773 496.996285 891.804189 489.728764 891.804189z" p-id="17376" fill="#ffffff"></path><path d="M512.716314 770.886235c-53.851489 0.002047-100.612489-20.799722-153.776316-48.013527-10.061147-5.149277-14.042831-17.48114-8.892531-27.54331 5.151323-10.060123 17.483186-14.041808 27.544333-8.892531 44.00319 22.525016 78.282924 37.419238 113.167432 42.071188 36.294624 4.840238 71.765487-1.821485 115.019617-21.598924 0.382717-0.176009 0.77055-0.338714 1.163499-0.490164 1.828648-0.704035 10.915607-4.448312 10.19213-9.105379-0.37146-2.396583-2.539846-4.558829-4.054339-4.64888-20.990057-1.251503-37.802978-1.565658-52.636824-1.843998-29.40061-0.550539-50.643424-0.948605-74.217329-8.629541-23.087834-7.523347-46.63718-21.236674-83.990926-48.914036l-19.059078-14.117532c-14.896268-11.033287-29.794583-22.068621-44.692898-33.110095-5.39794-3.999081-31.118741-8.080026-56.422034 2.207271l-117.655653 47.823192c-10.470469 4.253884-22.409382-0.782829-26.666336-11.253298-4.256954-10.471492 0.781806-22.409382 11.253298-26.66736L266.646989 550.337143c33.447786-13.595646 75.704193-12.356422 96.201016 2.822278 14.902408 11.045567 29.797653 22.077831 44.689828 33.109072l19.062148 14.120602c65.058738 48.203862 79.791278 48.480154 134.607744 49.506531 15.225773 0.284479 32.483832 0.607844 54.298673 1.908466 21.041222 1.246387 38.738279 17.744129 42.074258 39.23049 2.796696 18.016329-5.040806 41.423435-35.323507 53.346999C581.071122 763.139807 545.571606 770.884189 512.716314 770.886235z" p-id="17377" fill="#ffffff"></path><path d="M511.99693 275.461749c-11.30344 0-20.466124-9.162684-20.466124-20.466124l0-40.769542c0-11.30344 9.162684-20.466124 20.466124-20.466124s20.466124 9.162684 20.466124 20.466124l0 40.769542C532.463054 266.299065 523.30037 275.461749 511.99693 275.461749z" p-id="17378" fill="#ffffff"></path><path d="M511.99693 494.0113c-11.30344 0-20.466124-9.162684-20.466124-20.466124l0-40.761356c0-11.30344 9.162684-20.466124 20.466124-20.466124s20.466124 9.162684 20.466124 20.466124l0 40.761356C532.463054 484.847593 523.30037 494.0113 511.99693 494.0113z" p-id="17379" fill="#ffffff"></path><path d="M512.00307 554.234917c-115.986641 0-210.347752-94.362134-210.347752-210.349799 0-115.989711 94.361111-210.352869 210.347752-210.352869 115.990734 0 210.354915 94.364181 210.354915 210.352869C722.357985 459.871759 627.992781 554.234917 512.00307 554.234917zM512.00307 174.464497c-93.4166 0-169.415504 76.001975-169.415504 169.420621 0 93.417623 75.999928 169.417551 169.415504 169.417551 93.420693 0 169.422667-75.999928 169.422667-169.417551C681.425737 250.465448 605.423763 174.464497 512.00307 174.464497z" p-id="17380" fill="#ffffff"></path><path d="M520.076956 446.790836c-5.139044 0-10.425444-0.300852-15.83464-0.913812-18.049075-2.041496-35.145451-7.736195-53.244668-13.765515l-3.483334-1.159406c-10.726296-3.563152-16.533558-15.148002-12.970406-25.874297 3.563152-10.726296 15.148002-16.534582 25.874297-12.970406l3.515057 1.169639c16.700357 5.563716 31.124881 10.368138 44.910862 11.927657 27.02654 3.059686 42.512233-4.476965 48.007387-12.548804 2.709715-3.980661 3.007497-8.026814 0.884137-12.024871-4.186346-7.885598-18.139126-16.279778-44.750203-16.279778-0.300852 0-0.607844 0.001023-0.909719 0.001023-39.362496 0.001023-69.249177-13.794168-82.050738-37.890982-9.153474-17.231453-7.922437-37.365003 3.292999-53.858652 16.034185-23.579021 48.684816-35.059494 87.341231-30.715559 18.147312 2.038426 35.383882 7.780197 53.632501 13.858636l3.244904 1.080611c10.725272 3.565199 16.530488 15.150048 12.966313 25.876344-3.565199 10.726296-15.148002 16.531512-25.877367 12.966313l-3.270487-1.088798c-16.84669-5.612834-31.397081-10.459213-45.264926-12.016685-27.455305-3.085268-43.515073 5.104251-48.924269 13.056364-2.672876 3.930519-3.006474 7.845689-0.992607 11.638061 3.969405 7.472182 18.368346 16.162098 45.89119 16.162098 0.304945 0 0.6191-0.001023 0.926092-0.001023 54.791907 0 74.818009 26.566052 80.898495 38.017872 9.254781 17.433044 8.057513 37.714973-3.202948 54.255695C577.09967 435.649078 551.344077 446.790836 520.076956 446.790836z" p-id="17381" fill="#ffffff"></path></svg>