<?xml version="1.0" standalone="no"?><!DOCTYPE svg PUBLIC "-//W3C//DTD SVG 1.1//EN" "http://www.w3.org/Graphics/SVG/1.1/DTD/svg11.dtd"><svg t="1699618293917" class="icon" viewBox="0 0 1024 1024" version="1.1" xmlns="http://www.w3.org/2000/svg" p-id="59507" xmlns:xlink="http://www.w3.org/1999/xlink" width="200" height="200"><path d="M1018.129492 556.113003v243.730032H949.86375V671.47144l-352.475227 352.475227-191.357408-195.464019-139.038118 138.664789-47.99935-47.99935 187.730792-187.730792 191.357408 195.730683 302.662568-302.662568H785.599308v-68.265742z" fill="#1296db" p-id="59508"></path><path d="M578.668777 369.502196h95.145378v68.265743h-127.998267v59.412528h127.998267v68.265743h-127.998267v149.331311h-68.265742v-149.331311h-127.998267v-68.265743h127.998267V437.767939h1.813309l-1.813309-2.719964v2.719964h-127.998267v-68.265743h88.052141L339.525349 207.957717l58.239211-35.519519 109.705181 180.477556 118.345064-181.330878 57.119227 37.332828z" fill="#1296db" p-id="59509"></path><path d="M479.683451 437.767939H477.870142v-2.719964z" fill="#1296db" p-id="59510"></path><path d="M479.683451 437.767939H477.870142v-2.719964z" fill="#1296db" p-id="59511"></path><path d="M171.794287 880.855272A506.12648 506.12648 0 1 1 1018.129492 506.033681H949.86375a437.860737 437.860737 0 1 0-732.310083 324.262275z" fill="#1296db" p-id="59512"></path></svg>