<?xml version="1.0" standalone="no"?><!DOCTYPE svg PUBLIC "-//W3C//DTD SVG 1.1//EN" "http://www.w3.org/Graphics/SVG/1.1/DTD/svg11.dtd"><svg t="1699618203147" class="icon" viewBox="0 0 1024 1024" version="1.1" xmlns="http://www.w3.org/2000/svg" p-id="55495" xmlns:xlink="http://www.w3.org/1999/xlink" width="200" height="200"><path d="M994 60a30 30 0 0 1 0 60h-152v60H872c49.624 0 90 40.376 90 90v326.032c0 31.432-16.744 61-43.696 77.168l-240 144a89.832 89.832 0 0 1-92.608 0L343.792 673.256a90.496 90.496 0 0 1-43.792-77.224V270c0-49.624 40.376-90 90-90h30V120H240v844h30a30 30 0 0 1 0 60h-240a30 30 0 0 1 0-60H60V90C60 40.376 100.376 0 150 0c39.112 0 72.456 25.08 84.84 60h759.16zM180 964v-544H120v544h60z m0-604V240H120v120h60z m0-180V90a30.032 30.032 0 0 0-30-30A30.032 30.032 0 0 0 120 90V180h60zM480 120v60h302V120H480z m152 360c49.624 0 90 40.376 90 90a89.864 89.864 0 0 1-60 84.856v35.144a30 30 0 0 1-60 0v-34.952c-15.584-5.232-30.64-14.496-44.184-27.624a30 30 0 0 1 41.752-43.088c14.608 14.152 30.688 19 44.112 13.312a29.976 29.976 0 0 0 18.32-27.648A30.032 30.032 0 0 0 632 540c-49.624 0-90-40.376-90-90 0-37.696 23.792-71.68 59.2-84.584l0.8-0.272V330a30 30 0 0 1 60 0v34.848c19.792 6.664 38.672 19.936 54.888 39.248a30 30 0 1 1-45.944 38.584c-15.864-18.888-33.816-26.496-49.208-20.88a30.104 30.104 0 0 0-19.736 28.2A30.032 30.032 0 0 0 632 480z m240-240H390A30.032 30.032 0 0 0 360 270v326.032c0 10.48 5.584 20.328 14.568 25.72l241.904 143.944a29.984 29.984 0 0 0 30.96 0.056l240-144a30.16 30.16 0 0 0 14.568-25.72V270A30.032 30.032 0 0 0 872 240zM450 360a30 30 0 1 1 0-60 30 30 0 0 1 0 60z m362 0a30 30 0 1 1 0-60 30 30 0 0 1 0 60z" fill="#1296db" p-id="55496"></path></svg>