<?xml version="1.0" standalone="no"?><!DOCTYPE svg PUBLIC "-//W3C//DTD SVG 1.1//EN" "http://www.w3.org/Graphics/SVG/1.1/DTD/svg11.dtd"><svg t="1700003305001" class="icon" viewBox="0 0 1024 1024" version="1.1" xmlns="http://www.w3.org/2000/svg" p-id="2589" xmlns:xlink="http://www.w3.org/1999/xlink" width="200" height="200"><path d="M218.965333 981.333333l312.021334-312.064L843.093333 981.333333z" fill="#EDEEF0" p-id="2590"></path><path d="M516.266667 507.733333m-362.666667 0a362.666667 362.666667 0 1 0 725.333333 0 362.666667 362.666667 0 1 0-725.333333 0Z" fill="#535456" p-id="2591"></path><path d="M516.266667 507.733333m-213.333334 0a213.333333 213.333333 0 1 0 426.666667 0 213.333333 213.333333 0 1 0-426.666667 0Z" fill="#FFFFFF" p-id="2592"></path><path d="M1006.933333 85.333333H981.333333c-24.234667 0-44.501333 18.346667-46.933333 42.453334l-36.352 363.818666a34.133333 34.133333 0 0 0 15.018667 31.786667L1024 597.333333V102.4a17.066667 17.066667 0 0 0-17.066667-17.066667z" fill="#5BADFF" p-id="2593"></path><path d="M951.68 595.2l68.266667 42.282667a8.533333 8.533333 0 0 1 4.053333 7.253333V947.2a34.133333 34.133333 0 0 1-34.133333 34.133333h-17.066667a34.133333 34.133333 0 0 1-34.133333-34.133333v-344.746667a8.533333 8.533333 0 0 1 13.013333-7.253333z" fill="#CACBCC" p-id="2594"></path><path d="M106.666667 93.866667v196.266666c0 4.693333 3.84 8.533333 8.533333 8.533334h4.266667a8.533333 8.533333 0 0 0 8.533333-8.533334V93.866667c0-4.693333 3.84-8.533333 8.533333-8.533334h4.266667c4.693333 0 8.533333 3.84 8.533333 8.533334v264.533333A68.266667 68.266667 0 0 1 81.066667 426.666667h-12.8A68.266667 68.266667 0 0 1 0 358.4V93.866667c0-4.693333 3.84-8.533333 8.533333-8.533334h4.266667c4.693333 0 8.533333 3.84 8.533333 8.533334v196.266666c0 4.693333 3.84 8.533333 8.533334 8.533334h4.266666a8.533333 8.533333 0 0 0 8.533334-8.533334V93.866667c0-4.693333 3.84-8.533333 8.533333-8.533334h4.266667c4.693333 0 8.533333 3.84 8.533333 8.533334v196.266666c0 4.693333 3.84 8.533333 8.533333 8.533334h4.266667a8.533333 8.533333 0 0 0 8.533333-8.533334V93.866667c0-4.693333 3.84-8.533333 8.533334-8.533334h4.266666c4.693333 0 8.533333 3.84 8.533334 8.533334z" fill="#FFC13C" p-id="2595"></path><path d="M33.749333 549.418667l24.746667-74.197334a17.066667 17.066667 0 0 1 32.341333 0l24.746667 74.197334a34.133333 34.133333 0 0 1 1.749333 10.794666v386.986667a34.133333 34.133333 0 0 1-34.133333 34.133333h-17.066667a34.133333 34.133333 0 0 1-34.133333-34.133333v-386.986667a34.133333 34.133333 0 0 1 1.749333-10.794666z" fill="#CACBCC" p-id="2596"></path></svg>