<?xml version="1.0" standalone="no"?><!DOCTYPE svg PUBLIC "-//W3C//DTD SVG 1.1//EN" "http://www.w3.org/Graphics/SVG/1.1/DTD/svg11.dtd"><svg t="1699605844445" class="icon" viewBox="0 0 1024 1024" version="1.1" xmlns="http://www.w3.org/2000/svg" p-id="17800" xmlns:xlink="http://www.w3.org/1999/xlink" width="200" height="200"><path d="M704 768a128 128 0 0 1 110.848 64H960a64 64 0 0 1 0 128l-145.152 0.064a128 128 0 0 1-221.696 0L64 960a64 64 0 0 1 0-128h529.152A128 128 0 0 1 704 768zM320 384a128 128 0 0 1 110.848 64H960a64 64 0 0 1 0 128l-529.152 0.064a128 128 0 0 1-221.696 0L64 576a64 64 0 1 1 0-128h145.152A128 128 0 0 1 320 384z m384-384a128 128 0 0 1 110.848 64H960a64 64 0 0 1 0 128l-145.152 0.064a128 128 0 0 1-221.696 0L64 192a64 64 0 1 1 0-128h529.152A128 128 0 0 1 704 0z" p-id="17801"></path></svg>