<?xml version="1.0" standalone="no"?><!DOCTYPE svg PUBLIC "-//W3C//DTD SVG 1.1//EN" "http://www.w3.org/Graphics/SVG/1.1/DTD/svg11.dtd"><svg t="1699606918894" class="icon" viewBox="0 0 1024 1024" version="1.1" xmlns="http://www.w3.org/2000/svg" p-id="23815" xmlns:xlink="http://www.w3.org/1999/xlink" width="200" height="200"><path d="M907.025 463.55h-96.15v-20.775c0-27.713-20.625-48.45-48.075-48.45-27.487 0-48.075 20.738-48.075 48.45v20.775h-604.65C82.625 463.55 62 484.325 62 512s20.625 48.45 48.075 48.45H721.55v20.775c0 27.713 20.625 48.45 48.075 48.45 27.488 0 48.112-20.738 48.112-48.45V560.45h96.188c27.45 0 48.075-20.775 48.075-48.45-6.862-27.675-27.488-48.45-54.975-48.45z m0 332.288H329.937v-20.775c0-27.675-20.625-48.45-48.074-48.45-27.488 0-48.113 20.774-48.113 48.45v20.775H110.075C82.625 795.875 62 816.612 62 844.288c0 27.712 20.625 48.487 48.075 48.487h130.537v20.775c0 27.675 20.625 48.45 48.113 48.45s48.075-20.775 48.075-48.45v-20.775h577.125c27.45 0 48.075-20.775 48.075-48.488-6.862-27.675-27.488-48.45-54.975-48.45z m-796.95-567.675h130.537v20.774c0 27.675 20.626 48.45 48.113 48.45 27.488 0 48.075-20.774 48.075-48.45v-20.812h577.125c27.45 0 48.075-20.737 48.075-48.45 0-27.675-20.625-48.45-48.075-48.45H329.937V110.45c0-27.675-20.624-48.45-48.074-48.45-27.488 0-41.25 20.775-41.25 48.45v20.775h-130.5C82.624 131.225 62 152 62 179.675c0 27.713 20.625 48.487 48.075 48.487z" p-id="23816" fill="#707070"></path></svg>