<?xml version="1.0" standalone="no"?><!DOCTYPE svg PUBLIC "-//W3C//DTD SVG 1.1//EN" "http://www.w3.org/Graphics/SVG/1.1/DTD/svg11.dtd"><svg t="1700044766170" class="icon" viewBox="0 0 1254 1024" version="1.1" xmlns="http://www.w3.org/2000/svg" p-id="10681" xmlns:xlink="http://www.w3.org/1999/xlink" width="244.921875" height="200"><path d="M704.144643 587.430321c-43.031062 0-89.191655 6.259063-136.917014 6.259064C289.481687 593.689385 63.373018 519.363006 63.373018 427.824202c0-34.424849 31.295317-65.720167 85.27974-92.321186l-47.725359-33.642467A175.253778 175.253778 0 0 0 8.606212 409.047012a151.78229 151.78229 0 0 0 0 18.77719c0 16.430042 0 38.336764-4.694297 52.419657H0v28.165786c0 214.372925 252.709689 391.191468 564.88048 391.191468A678.326006 678.326006 0 0 0 1017.097818 745.471675l-219.067223-110.315995zM1072.647006 427.824202a64.937784 64.937784 0 0 1-16.430041 43.813445l6.259063 4.694297h-4.694298l71.979231 48.507742a788.642 788.642 0 0 0 0-98.58025c0-107.968845-185.424756-197.942883-435.004913-221.414371l73.543996 68.849699c179.165693 27.383403 304.346962 86.062123 304.346962 154.129438z" p-id="10682"></path><path d="M870.792209 894.124433a604.78201 604.78201 0 0 1-292.611219 56.331571 607.911542 607.911542 0 0 1-293.393601-56.331571h-3.911915l-28.165785-19.559574v59.461103a91.538804 91.538804 0 0 0 24.253871 28.165786 593.046266 593.046266 0 0 0 301.21743 59.461103c170.55948 0 312.953175-38.336764 319.994621-86.062123v-61.025869l-26.601019 17.994808zM84.497357 100.005752s-31.295317-28.165786-78.238294 22.689105v78.238294L1089.859431 706.352528s53.984423 7.041446 22.689105-28.948169S84.497357 100.005752 84.497357 100.005752zM1242.424104 667.233381L251.144923 2.207885c-49.290125-14.082893-78.238294 43.813444-78.238294 43.813444v53.20204S1161.056278 667.233381 1218.170232 697.746315s24.253871-30.512935 24.253872-30.512934z" p-id="10683"></path></svg>