<?xml version="1.0" standalone="no"?><!DOCTYPE svg PUBLIC "-//W3C//DTD SVG 1.1//EN" "http://www.w3.org/Graphics/SVG/1.1/DTD/svg11.dtd"><svg t="1699688871844" class="icon" viewBox="0 0 1024 1024" version="1.1" xmlns="http://www.w3.org/2000/svg" p-id="34810" xmlns:xlink="http://www.w3.org/1999/xlink" width="200" height="200"><path d="M988.16 378.88c0-30.72-20.48-56.32-46.08-66.56L573.44 97.28c-20.48-10.24-40.96-15.36-66.56-15.36s-51.2 5.12-71.68 20.48L81.92 317.44c-25.6 15.36-40.96 40.96-40.96 71.68 0 30.72 20.48 56.32 46.08 66.56l368.64 215.04c15.36 10.24 35.84 15.36 56.32 15.36h10.24c25.6 0 51.2-5.12 71.68-20.48L947.2 440.32c25.6-10.24 46.08-35.84 40.96-61.44z m-112.64 0L542.72 588.8c-5.12 5.12-15.36 5.12-20.48 5.12-5.12 0-15.36 0-20.48-5.12L158.72 389.12l332.8-209.92c5.12-5.12 10.24-5.12 20.48-5.12 5.12 0 15.36 0 20.48 5.12l343.04 199.68z m112.64 256c0-30.72-20.48-56.32-46.08-66.56-5.12-5.12-15.36-5.12-25.6-5.12h-15.36c-10.24 5.12-25.6 15.36-30.72 25.6-10.24 15.36-10.24 30.72 0 46.08L532.48 844.8c-5.12 5.12-15.36 5.12-20.48 5.12-5.12 0-15.36 0-20.48-5.12L138.24 640c10.24-15.36 10.24-30.72 0-46.08s-25.6-20.48-40.96-20.48c-10.24 0-15.36 0-25.6 5.12-25.6 15.36-40.96 40.96-40.96 71.68 0 30.72 20.48 56.32 46.08 66.56l368.64 215.04c20.48 10.24 40.96 15.36 66.56 15.36s51.2-5.12 71.68-20.48l353.28-225.28c30.72-5.12 51.2-35.84 51.2-66.56z" p-id="34811" fill="#ffffff"></path></svg>