<?xml version="1.0" standalone="no"?><!DOCTYPE svg PUBLIC "-//W3C//DTD SVG 1.1//EN" "http://www.w3.org/Graphics/SVG/1.1/DTD/svg11.dtd"><svg t="1699607281685" class="icon" viewBox="0 0 1024 1024" version="1.1" xmlns="http://www.w3.org/2000/svg" p-id="28774" xmlns:xlink="http://www.w3.org/1999/xlink" width="200" height="200"><path d="M768 938.666667a42.666667 42.666667 0 1 1-42.666667-42.666667 42.713333 42.713333 0 0 1 42.666667 42.666667z m-426.666667-42.666667a42.666667 42.666667 0 1 0 42.666667 42.666667 42.713333 42.713333 0 0 0-42.666667-42.666667z m630.533334-589.56l-168.32 448.853333a85.333333 85.333333 0 0 1-79.9 55.373334H347.146667a85.333333 85.333333 0 0 1-82.146667-62.226667L90.506667 128H21.333333a21.333333 21.333333 0 0 1 0-42.666667h85.333334a21.333333 21.333333 0 0 1 20.533333 15.56L170.826667 256h97.666666L468.04 56.46a32 32 0 0 1 45.253333 0L597.333333 140.5l41.373334-41.373333a32 32 0 0 1 45.253333 0L840.833333 256h96.08a37.333333 37.333333 0 0 1 34.953334 50.44zM627.5 170.666667l85.333333 85.333333h67.66L661.333333 136.833333z m-298.666667 85.333333h323.666667L490.666667 94.166667z m600.38 42.666667H182.826667l123.246666 438.22a42.82 42.82 0 0 0 41.073334 31.113333h376.5a42.873333 42.873333 0 0 0 39.953333-27.686667z" fill="#ffffff" p-id="28775"></path></svg>